<svg width="71" height="74" xmlns="http://www.w3.org/2000/svg">
 <defs>
  <clipPath id="clip0">
   <rect id="svg_1" fill="white" height="74" width="71"/>
  </clipPath>
 </defs>
 <g>
  <title>background</title>
  <rect fill="none" id="canvas_background" height="602" width="802" y="-1" x="-1"/>
 </g>
 <g>
  <title>Layer 1</title>
  <g id="svg_2" clip-path="url(#clip0)">
   <path id="svg_3" fill="#3f549c" d="m40.9728,21.5888c-7.9682,0.2974 -27.7331,2.5603 -27.7331,19.4085c0,18.0871 22.6282,18.8304 30.0237,7.1357c1.0635,1.6849 5.792,6.1942 7.4118,7.7304l9.2935,-9.25c0,0 -5.2849,-4.179 -5.2849,-8.7214l0,-24.2978c0,-4.17902 -4.0086,-13.5942 -18.3741,-13.5942c-14.3983,0 -22.0392,9.08482 -22.0392,17.2281l12.0258,1.1232c2.667,-8.1763 8.868,-8.1763 8.868,-8.1763c6.6593,-0.0165 5.8085,4.9223 5.8085,11.4138zm0,14.3375c0,13.2143 -13.7766,11.2322 -13.7766,2.8411c0,-7.7964 8.2627,-9.3656 13.7766,-9.5473l0,6.7062zm22.2519,27.0067c-1.2599,1.6518 -11.4532,11.067 -28.5512,11.067c-17.098,0 -30.18732,-11.8103 -34.19594,-16.683c-1.11259,-1.2719 0.16362,-1.8666 0.89989,-1.371c11.99315,7.3504 30.72725,19.458 60.94735,5.0049c1.2271,-0.6112 2.1761,0.3303 0.8999,1.9821zm6.5119,0.3634c-1.0635,2.6098 -2.6179,4.4268 -3.4687,5.1206c-0.8999,0.7433 -1.5543,0.4459 -1.0635,-0.6277c0.4909,-1.0737 3.1578,-7.6808 2.0779,-9.0848c-1.0635,-1.371 -6.0538,-0.7103 -7.8536,-0.5286c-1.767,0.1652 -2.127,0.3303 -2.2906,-0.0496c-0.3763,-0.9415 3.5505,-2.5602 6.1356,-2.8906c2.5688,-0.2973 6.7083,-0.1321 7.5264,0.9415c0.6054,0.8424 0,4.4764 -1.0635,7.1192z"/>
  </g>
 </g>
</svg>