<svg width="71" height="74" xmlns="http://www.w3.org/2000/svg">

 <g>
  <title>background</title>
  <rect fill="none" id="canvas_background" height="602" width="802" y="-1" x="-1"/>
 </g>
 <g>
  <title>Layer 1</title>
  <path id="svg_1" fill="#3f549c" d="m58.6954,39.1049c-0.0372,-6.0632 3.05,-10.6395 9.2986,-14.0097c-3.4962,-4.4441 -8.7778,-6.8892 -15.7518,-7.3683c-6.602,-0.4626 -13.8178,3.4198 -16.4586,3.4198c-2.7896,0 -9.187,-3.2546 -14.2083,-3.2546c-10.3772,0.1487 -21.40538,7.3518 -21.40538,22.0058c0,4.3284 0.89267,8.8001 2.678,13.4149c2.38045,6.0632 10.97238,20.932 19.93628,20.6841c4.6865,-0.0991 7.9968,-2.9572 14.0967,-2.9572c5.9139,0 8.9824,2.9572 14.2083,2.9572c9.0382,-0.1156 16.8119,-13.6297 19.0807,-19.7093c-12.1254,-5.0719 -11.4745,-14.8688 -11.4745,-15.1827zm-10.526,-27.1273c5.077,-5.35273 4.6121,-10.22639 4.4633,-11.9776c-4.4819,0.23129 -9.6705,2.70942 -12.6275,5.76578c-3.2545,3.27113 -5.17,7.31872 -4.7609,11.87852c4.8539,0.3304 9.28,-1.8834 12.9251,-5.6667z"/>
 </g>
</svg>