<svg width="40" height="40" xmlns="http://www.w3.org/2000/svg">

 <g>
  <title>background</title>
  <rect fill="none" id="canvas_background" height="602" width="802" y="-1" x="-1"/>
 </g>
 <g>
  <title>Layer 1</title>
  <path id="svg_1" fill="#3f549c" d="m13.379,31.0469c0,0.1562 -0.1855,0.2812 -0.4193,0.2812c-0.2662,0.0235 -0.4516,-0.1015 -0.4516,-0.2812c0,-0.1563 0.1854,-0.2813 0.4193,-0.2813c0.242,-0.0234 0.4516,0.1016 0.4516,0.2813zm-2.508,-0.3516c-0.0565,0.1563 0.1048,0.3359 0.3467,0.3828c0.2097,0.0781 0.4517,0 0.5,-0.1562c0.0484,-0.1563 -0.1048,-0.336 -0.3467,-0.4063c-0.2097,-0.0547 -0.4436,0.0235 -0.5,0.1797zm3.5645,-0.1328c-0.2339,0.0547 -0.3952,0.2031 -0.371,0.3828c0.0242,0.1563 0.2339,0.2578 0.4758,0.2031c0.2339,-0.0546 0.3952,-0.2031 0.371,-0.3593c-0.0242,-0.1485 -0.2419,-0.25 -0.4758,-0.2266zm5.3064,-29.9375c-11.18545,0 -19.7419,8.22656 -19.7419,19.0625c0,8.6641 5.62903,16.0781 13.6694,18.6875c1.0322,0.1797 1.3951,-0.4375 1.3951,-0.9453c0,-0.4844 -0.0242,-3.1563 -0.0242,-4.7969c0,0 -5.64514,1.1719 -6.83062,-2.3281c0,0 -0.91936,-2.2735 -2.24194,-2.8594c0,0 -1.84677,-1.2265 0.12903,-1.2031c0,0 2.00807,0.1562 3.11291,2.0156c1.76612,3.0156 4.72582,2.1484 5.87902,1.6328c0.1855,-1.25 0.7097,-2.1172 1.2903,-2.6328c-4.508,-0.4844 -9.05642,-1.1172 -9.05642,-8.6328c0,-2.1484 0.6129,-3.2266 1.90323,-4.6016c-0.20968,-0.5078 -0.89517,-2.6015 0.20967,-5.30465c1.68552,-0.50781 5.56452,2.10935 5.56452,2.10935c1.6129,-0.4375 3.3468,-0.664 5.0645,-0.664c1.7178,0 3.4516,0.2265 5.0645,0.664c0,0 3.8791,-2.62498 5.5645,-2.10935c1.1049,2.71095 0.4194,4.79685 0.2097,5.30465c1.2904,1.3828 2.0807,2.461 2.0807,4.6016c0,7.5391 -4.75,8.1406 -9.2581,8.6328c0.7419,0.6172 1.371,1.7891 1.371,3.625c0,2.6328 -0.0242,5.8906 -0.0242,6.5313c0,0.5078 0.3709,1.125 1.3951,0.9453c8.0646,-2.5938 13.5323,-10.0078 13.5323,-18.6719c0,-10.83594 -9.0726,-19.0625 -20.2581,-19.0625zm-11.90319,26.9453c-0.10484,0.0781 -0.08065,0.2578 0.05645,0.4063c0.12903,0.125 0.31452,0.1796 0.41936,0.0781c0.10483,-0.0781 0.08064,-0.2578 -0.05646,-0.4063c-0.12903,-0.125 -0.31451,-0.1796 -0.41935,-0.0781zm-0.87097,-0.6328c-0.05645,0.1016 0.0242,0.2266 0.18549,0.3047c0.12903,0.0781 0.29032,0.0547 0.34677,-0.0547c0.05645,-0.1016 -0.02419,-0.2266 -0.18548,-0.3047c-0.16129,-0.0469 -0.29033,-0.0234 -0.34678,0.0547zm2.61291,2.7813c-0.12904,0.1015 -0.08065,0.3359 0.10483,0.4843c0.18549,0.1797 0.41932,0.2031 0.52422,0.0781c0.1048,-0.1015 0.0564,-0.3359 -0.1049,-0.4843c-0.17738,-0.1797 -0.41932,-0.2031 -0.52415,-0.0781zm-0.91936,-1.1485c-0.12903,0.0781 -0.12903,0.2813 0,0.4609c0.12903,0.1797 0.34677,0.2579 0.45161,0.1797c0.12903,-0.1015 0.12903,-0.3047 0,-0.4843c-0.1129,-0.1797 -0.32258,-0.2578 -0.45161,-0.1563z"/>
 </g>
</svg>