<svg width="71" height="74" xmlns="http://www.w3.org/2000/svg">

 <g>
  <title>background</title>
  <rect fill="none" id="canvas_background" height="602" width="802" y="-1" x="-1"/>
 </g>
 <g>
  <title>Layer 1</title>
  <path id="svg_1" fill="#3f549c" d="m70.1699,37.8653c0,21.1109 -13.8996,36.1347 -34.4262,36.1347c-19.6803,0 -35.57378,-16.5306 -35.57378,-37c0,-20.4694 15.89348,-37 35.57378,-37c9.582,0 17.6434,3.65524 23.8545,9.68266l-9.6824,9.68264c-12.666,-12.71127 -36.2192,-3.1629 -36.2192,17.6347c0,12.9052 9.9118,23.3637 22.0471,23.3637c14.0861,0 19.3647,-10.5032 20.1967,-15.9488l-20.1967,0l0,-12.7262l33.8668,0c0.3299,1.8948 0.5594,3.7149 0.5594,6.1766z"/>
 </g>
</svg>