<svg width="71" height="74" xmlns="http://www.w3.org/2000/svg">
 <defs>
  <clipPath id="clip0">
   <rect id="svg_1" fill="white" height="74" width="71"/>
  </clipPath>
 </defs>
 <g>
  <title>background</title>
  <rect fill="none" id="canvas_background" height="602" width="802" y="-1" x="-1"/>
 </g>
 <g>
  <title>Layer 1</title>
  <g id="svg_2" clip-path="url(#clip0)">
   <path id="svg_3" fill="#3f549c" d="m35.516,20.3788c-10.0794,0 -18.2096,7.4145 -18.2096,16.6067c0,9.1921 8.1302,16.6066 18.2096,16.6066c10.0795,0 18.2096,-7.4145 18.2096,-16.6066c0,-9.1922 -8.1301,-16.6067 -18.2096,-16.6067zm0,27.4031c-6.5136,0 -11.8386,-4.8418 -11.8386,-10.7964c0,-5.9547 5.3092,-10.7965 11.8386,-10.7965c6.5295,0 11.8386,4.8418 11.8386,10.7965c0,5.9546 -5.325,10.7964 -11.8386,10.7964zm23.2018,-28.0824c0,2.1535 -1.9018,3.8735 -4.2473,3.8735c-2.3614,0 -4.2473,-1.7344 -4.2473,-3.8735c0,-2.139 1.9018,-3.8734 4.2473,-3.8734c2.3455,0 4.2473,1.7344 4.2473,3.8734zm12.0605,3.9313c-0.2694,-5.1887 -1.569,-9.7848 -5.737,-13.5715c-4.1523,-3.78674 -9.192,-4.9719 -14.8815,-5.23205c-5.8639,-0.30352 -23.4395,-0.30352 -29.3034,0c-5.6736,0.2457 -10.7134,1.43086 -14.88145,5.21755c-4.16809,3.7867 -5.45179,8.3828 -5.73706,13.5715c-0.33281,5.3477 -0.33281,21.3762 0,26.7238c0.26942,5.1887 1.56897,9.7848 5.73706,13.5715c4.16805,3.7867 9.19195,4.9719 14.88145,5.2321c5.8639,0.3035 23.4395,0.3035 29.3034,0c5.6895,-0.2457 10.7292,-1.4309 14.8815,-5.2321c4.1522,-3.7867 5.4517,-8.3828 5.737,-13.5715c0.3328,-5.3476 0.3328,-21.3617 0,-26.7093zm-7.5754,32.4472c-1.2362,2.8328 -3.6293,5.0153 -6.7514,6.1571c-4.6752,1.691 -15.769,1.3007 -20.9355,1.3007c-5.1665,0 -16.2761,0.3758 -20.9355,-1.3007c-3.1062,-1.1274 -5.4993,-3.3098 -6.75131,-6.1571c-1.85424,-4.2636 -1.42634,-14.3808 -1.42634,-19.0925c0,-4.7118 -0.41206,-14.8434 1.42634,-19.0926c1.23616,-2.8328 3.62921,-5.0153 6.75131,-6.1571c4.6753,-1.691 15.769,-1.3007 20.9355,-1.3007c5.1665,0 16.2761,-0.3758 20.9355,1.3007c3.1063,1.1274 5.4993,3.3098 6.7514,6.1571c1.8542,4.2636 1.4263,14.3808 1.4263,19.0926c0,4.7117 0.4279,14.8433 -1.4263,19.0925z"/>
  </g>
 </g>
</svg>