<svg width="120.00000000000001" height="120.00000000000001" xmlns="http://www.w3.org/2000/svg">

 <g>
  <title>background</title>
  <rect fill="none" id="canvas_background" height="122" width="122" y="-1" x="-1"/>
 </g>
 <g>
  <title>Layer 1</title>
  <g stroke="null" id="svg_1">
   <path fill="#3f549c" stroke="null" id="svg_2" d="m63.25831,65.64176c-0.26937,-1.3545 -0.92626,-2.64254 -1.96909,-3.69006c-1.0066,-1.01113 -2.23531,-1.65989 -3.5286,-1.94788c-2.32825,-0.52218 -4.86443,0.12817 -6.67442,1.94788c-2.81658,2.82926 -5.1023,15.37261 -5.1023,15.37261s12.48716,-2.29442 15.30374,-5.12526c1.77375,-1.78015 2.43222,-4.26129 1.97066,-6.55729z"/>
   <path fill="#3f549c" stroke="null" id="svg_3" d="m63.28194,59.94843c1.18145,1.18677 2.0384,2.63304 2.51098,4.22173c3.56641,-2.22005 7.84957,-5.46705 12.43833,-9.46725c-1.10899,-1.99535 -2.50625,-3.87045 -4.19022,-5.56357c-1.64931,-1.65673 -3.46874,-3.03338 -5.40475,-4.1347c-1.20036,1.38773 -2.33297,2.74856 -3.38998,4.06983c-2.44324,3.05395 -4.48164,5.89903 -6.02698,8.39757c1.52644,0.4842 2.91897,1.3276 4.06262,2.47639z"/>
   <path fill="#3f549c" stroke="null" id="svg_4" d="m108.02274,15.32435c-2.70631,-2.71849 -16.02521,6.01296 -29.56308,19.2573c-0.54819,0.53642 -1.09796,1.08075 -1.64931,1.63458c-2.2227,2.23271 -4.32254,4.4575 -6.27272,6.63008c1.99587,1.1931 3.84366,2.63304 5.49611,4.29294c1.69184,1.70104 3.15054,3.60145 4.35089,5.65218c1.30905,-1.18519 2.63858,-2.42417 3.97598,-3.71538c0.88058,-0.84814 1.76588,-1.71844 2.65275,-2.60931c4.03111,-4.04925 7.70464,-8.09851 10.83313,-11.88351c7.79916,-9.4451 12.18786,-17.23821 10.17624,-19.25888z"/>
   <path fill="#3f549c" stroke="null" id="svg_5" d="m101.80988,37.88561c-0.24417,0.2959 -0.49621,0.59338 -0.7451,0.88929l0,55.89522l-81.12951,0l0,-57.47916l48.77821,0c1.4398,-1.55071 2.93,-3.10142 4.45486,-4.63314c0.53874,-0.54117 1.11056,-1.10765 1.69656,-1.68205c5.53707,-5.41641 11.18599,-10.24735 16.25678,-13.92l-75.0789,0c-2.40544,0 -4.3761,1.97953 -4.3761,4.39737l0,13.56714l0.04726,0l0,59.85745c0,4.4939 3.64045,8.15073 8.11421,8.15073l81.34217,0c4.47534,0 8.11579,-3.65683 8.11579,-8.15073l0,-59.85745l0.04726,0l0,-7.21714c-1.92498,3.03496 -4.47692,6.49558 -7.52349,10.18247zm-60.703,-13.79183c1.61938,0 2.9426,1.33076 2.9426,2.95585c0,1.62508 -1.3248,2.95585 -2.9426,2.95585c-1.6178,0 -2.9426,-1.33076 -2.9426,-2.95585c0.00158,-1.62508 1.3248,-2.95585 2.9426,-2.95585zm-9.17594,0c1.6178,0 2.9426,1.33076 2.9426,2.95585c0,1.62508 -1.3248,2.95585 -2.9426,2.95585c-1.61938,0 -2.9426,-1.33076 -2.9426,-2.95585c-0.00158,-1.62508 1.32323,-2.95585 2.9426,-2.95585zm-12.1217,2.95743c0,-1.62666 1.32323,-2.95585 2.9426,-2.95585c1.6178,0 2.9426,1.33076 2.9426,2.95585c0,1.62508 -1.3248,2.95585 -2.9426,2.95585c-1.6178,-0.00158 -2.9426,-1.33076 -2.9426,-2.95585z"/>
  </g>
 </g>
</svg>